/* XPM */
static char *_86b805b33bf4212ee26bb83537a84b3eyc9dfEZQe6XKZV4[] = {
/* columns rows colors chars-per-pixel */
"32 32 256 2 ",
"   c black",
".  c #010101",
"X  c #020202",
"o  c gray1",
"O  c #040404",
"+  c gray2",
"@  c #060606",
"#  c #070707",
"$  c gray3",
"%  c #090909",
"&  c gray4",
"*  c #0B0B0B",
"=  c #0C0C0C",
"-  c gray5",
";  c #0E0E0E",
":  c gray6",
">  c #101010",
",  c #111111",
"<  c gray7",
"1  c #131313",
"2  c gray8",
"3  c #151515",
"4  c #161616",
"5  c gray9",
"6  c #181818",
"7  c #191919",
"8  c gray10",
"9  c #1B1B1B",
"0  c gray11",
"q  c #1D1D1D",
"w  c #1E1E1E",
"e  c gray12",
"r  c #202020",
"t  c gray13",
"y  c #222222",
"u  c #232323",
"i  c gray14",
"p  c #252525",
"a  c gray15",
"s  c #272727",
"d  c #282828",
"f  c gray16",
"g  c #2A2A2A",
"h  c gray17",
"j  c #2C2C2C",
"k  c #2D2D2D",
"l  c gray18",
"z  c #2F2F2F",
"x  c gray19",
"c  c #313131",
"v  c #323232",
"b  c gray20",
"n  c #343434",
"m  c #353535",
"M  c gray21",
"N  c #373737",
"B  c gray22",
"V  c #393939",
"C  c #3A3A3A",
"Z  c gray23",
"A  c #3C3C3C",
"S  c gray24",
"D  c #3E3E3E",
"F  c #3F3F3F",
"G  c gray25",
"H  c #414141",
"J  c gray26",
"K  c #434343",
"L  c #444444",
"P  c gray27",
"I  c #464646",
"U  c gray28",
"Y  c #484848",
"T  c #494949",
"R  c gray29",
"E  c #4B4B4B",
"W  c #4C4C4C",
"Q  c gray30",
"!  c #4E4E4E",
"~  c gray31",
"^  c #505050",
"/  c #515151",
"(  c gray32",
")  c #535353",
"_  c gray33",
"`  c #555555",
"'  c #565656",
"]  c gray34",
"[  c #585858",
"{  c gray35",
"}  c #5A5A5A",
"|  c #5B5B5B",
" . c gray36",
".. c #5D5D5D",
"X. c gray37",
"o. c #5F5F5F",
"O. c #606060",
"+. c gray38",
"@. c #626262",
"#. c gray39",
"$. c #646464",
"%. c #656565",
"&. c gray40",
"*. c #676767",
"=. c #686868",
"-. c DimGray",
";. c #6A6A6A",
":. c gray42",
">. c #6C6C6C",
",. c #6D6D6D",
"<. c gray43",
"1. c #6F6F6F",
"2. c gray44",
"3. c #717171",
"4. c #727272",
"5. c gray45",
"6. c #747474",
"7. c gray46",
"8. c #767676",
"9. c #777777",
"0. c gray47",
"q. c #797979",
"w. c gray48",
"e. c #7B7B7B",
"r. c #7C7C7C",
"t. c gray49",
"y. c #7E7E7E",
"u. c gray50",
"i. c #808080",
"p. c #818181",
"a. c gray51",
"s. c #838383",
"d. c #848484",
"f. c gray52",
"g. c #868686",
"h. c gray53",
"j. c #888888",
"k. c #898989",
"l. c gray54",
"z. c #8B8B8B",
"x. c gray55",
"c. c #8D8D8D",
"v. c #8E8E8E",
"b. c gray56",
"n. c #909090",
"m. c gray57",
"M. c #929292",
"N. c #939393",
"B. c gray58",
"V. c #959595",
"C. c gray59",
"Z. c #979797",
"A. c #989898",
"S. c gray60",
"D. c #9A9A9A",
"F. c #9B9B9B",
"G. c gray61",
"H. c #9D9D9D",
"J. c gray62",
"K. c #9F9F9F",
"L. c #A0A0A0",
"P. c gray63",
"I. c #A2A2A2",
"U. c gray64",
"Y. c #A4A4A4",
"T. c #A5A5A5",
"R. c gray65",
"E. c #A7A7A7",
"W. c gray66",
"Q. c #A9A9A9",
"!. c #AAAAAA",
"~. c gray67",
"^. c #ACACAC",
"/. c gray68",
"(. c #AEAEAE",
"). c #AFAFAF",
"_. c gray69",
"`. c #B1B1B1",
"'. c #B2B2B2",
"]. c gray70",
"[. c #B4B4B4",
"{. c gray71",
"}. c #B6B6B6",
"|. c #B7B7B7",
" X c gray72",
".X c #B9B9B9",
"XX c gray73",
"oX c #BBBBBB",
"OX c #BCBCBC",
"+X c gray74",
"@X c gray",
"#X c gray75",
"$X c #C0C0C0",
"%X c #C1C1C1",
"&X c gray76",
"*X c #C3C3C3",
"=X c gray77",
"-X c #C5C5C5",
";X c #C6C6C6",
":X c gray78",
">X c #C8C8C8",
",X c gray79",
"<X c #CACACA",
"1X c #CBCBCB",
"2X c gray80",
"3X c #CDCDCD",
"4X c #CECECE",
"5X c gray81",
"6X c #D0D0D0",
"7X c gray82",
"8X c #D2D2D2",
"9X c LightGray",
"0X c gray83",
"qX c #D5D5D5",
"wX c gray84",
"eX c #D7D7D7",
"rX c #D8D8D8",
"tX c gray85",
"yX c #DADADA",
"uX c gray86",
"iX c gainsboro",
"pX c #DDDDDD",
"aX c gray87",
"sX c #DFDFDF",
"dX c gray88",
"fX c #E1E1E1",
"gX c #E2E2E2",
"hX c gray89",
"jX c #E4E4E4",
"kX c gray90",
"lX c #E6E6E6",
"zX c #E7E7E7",
"xX c gray91",
"cX c #E9E9E9",
"vX c #EAEAEA",
"bX c gray92",
"nX c #ECECEC",
"mX c gray93",
"MX c #EEEEEE",
"NX c #EFEFEF",
"BX c gray94",
"VX c #F1F1F1",
"CX c gray95",
"ZX c #F3F3F3",
"AX c #F4F4F4",
"SX c gray96",
"DX c #F6F6F6",
"FX c gray97",
"GX c #F8F8F8",
"HX c #F9F9F9",
"JX c gray98",
"KX c #FBFBFB",
"LX c gray99",
"PX c #FDFDFD",
"IX c #FEFEFE",
"UX c white",
/* pixels */
"` { %.4.9.3.*.o.o.@.+.X.{ ` / / ] ( ^ Q E U R R / / W E ^ ~ ) ' ",
".. .o.:.4.6.,.&.@. .} .... .[ ) ^ ^ E ~ ^ ! Q T W ~ _ ) ` / ^ / ",
" ... .;.2.8.2.*.+.X.| | X...| ' ~ ^ E ^ / ^ ~ E Q ^ [ ] [ ` ( ( ",
"..o...*.3.6.1.&.@...|  .o.X. .[ ! Q E ( ) _ _ ! ( ` | |  .{ ' ` ",
"[ ..%.<.8.1.=.+.+.@.O.+... .| [ ' ( ( ~ ^ ^ ( _ }  ...o.X. . ...",
"] O.1.7.7.:.#.O.O.$.$.$.X.| { { ..} ' ~ ~ ! ( } X.@.o.#.@.#.$.$.",
" .&.7.0.3.&.+.O.+.*.*.&.O.....X.O.o.| ) ( ^ ` o.+.*.$.*.&.=.;.-.",
":.6.q.6.3.;.*.%.%.*.*.=.$.#.$.%.%.@.o.{ ' ]  .#.@.&.*.;.:.,.1.>.",
"9.8.7.4.1.1.3.1.,.-.=.-.,.,.,.-.%.#.#.#.&.&.&.@.#.$.<.1.5.3.<.<.",
"0.9.5.5.5.6.8.6.7.1.<.>.2.2.2.,.,.1.<.2.1.,.>.&.=.-.2.3.9.3.1.2.",
"q.8.3.3.2.6.0.0.9.6.6.5.8.0.9.7.7.0.8.e.w.5.2.:.:.,.3.5.9.5.4.1.",
"0.8.0.0.0.9.9.0.w.t.t.y.r.r.e.r.p.p.i.u.r.8.6.6.5.5.5.4.6.8.0.9.",
"e.w.y.t.t.e.w.r.u.d.d.f.p.i.u.i.g.s.f.y.e.0.8.q.8.0.5.4.6.7.0.w.",
"i.u.s.s.a.i.u.p.s.h.j.j.h.f.d.d.f.g.g.a.u.u.r.u.y.y.q.9.8.9.q.q.",
"d.s.f.d.s.d.f.g.j.j.k.j.k.h.h.h.h.j.j.g.g.d.f.a.i.y.r.w.w.q.w.w.",
"j.g.f.p.d.j.z.v.x.k.j.k.x.c.c.z.k.h.h.x.x.l.k.d.a.i.a.p.y.e.q.9.",
"k.j.g.h.g.k.z.x.x.x.z.c.x.v.c.x.z.x.z.x.v.c.l.g.j.f.f.d.i.r.q.0.",
"k.h.d.f.h.l.z.l.c.v.c.v.b.m.b.c.z.v.c.c.n.v.x.k.z.h.d.s.p.r.q.0.",
"a.p.s.d.j.l.z.z.x.b.N.N.n.n.b.b.m.M.m.v.b.x.z.z.x.j.s.i.p.i.u.y.",
"u.y.s.a.g.j.l.l.x.v.b.n.n.b.c.b.N.M.M.b.v.x.c.v.x.j.p.u.u.i.i.y.",
"y.t.p.s.f.g.g.j.l.c.b.n.n.b.v.b.N.N.m.c.x.k.l.c.l.g.i.a.p.a.d.i.",
"u.u.t.u.i.a.d.h.l.x.x.c.c.v.n.n.m.M.n.v.c.z.k.j.d.d.i.p.a.s.s.p.",
"d.a.y.r.y.u.d.j.j.g.g.k.x.b.m.n.v.v.z.c.v.x.k.f.a.i.a.d.d.p.y.y.",
"d.s.i.u.y.p.d.h.j.g.f.g.l.c.c.c.c.x.l.c.x.j.j.g.d.s.a.p.s.i.y.p.",
"g.s.i.y.u.s.s.d.d.f.f.f.k.z.l.z.k.j.g.h.h.h.g.d.p.p.a.d.d.a.p.i.",
"d.s.s.a.a.p.u.u.s.f.g.g.d.d.f.s.g.h.g.a.p.i.d.h.d.s.i.i.i.a.d.d.",
"a.a.d.d.f.p.u.u.y.p.a.p.p.u.a.i.i.i.y.q.r.y.s.h.d.a.i.i.i.i.p.s.",
"y.u.f.g.d.p.t.r.y.u.i.u.y.t.u.u.u.w.q.7.9.w.a.g.d.i.u.u.p.p.s.g.",
"p.u.p.p.a.a.i.u.p.y.y.r.y.y.u.u.y.w.0.q.e.u.s.f.s.i.p.p.a.a.s.f.",
"p.p.t.t.u.a.s.s.d.u.y.y.u.a.s.p.e.w.q.y.i.s.f.d.f.p.d.d.f.s.a.d.",
"i.u.t.t.t.a.f.s.d.p.i.i.a.s.a.u.e.e.w.y.p.d.h.h.j.a.f.f.g.s.a.d.",
"p.u.t.t.r.p.f.s.s.p.i.p.s.f.p.t.e.w.r.u.a.d.h.g.g.a.g.g.g.d.a.s."
};
