/* XPM */
static char *dbf91c19d0994df6df071b9004e46762C3NdX0DKGI7pNGqi[] = {
/* columns rows colors chars-per-pixel */
"32 32 109 2 ",
"   c #ABBFFA",
".  c #ACC0FB",
"X  c #ACC2FB",
"o  c #A9C7F9",
"O  c #A9C7FB",
"+  c #ACC5FB",
"@  c #ADC7FA",
"#  c #ADC1FC",
"$  c #ADC3FC",
"%  c #AEC2FD",
"&  c #ADC1FE",
"*  c #AFC3FE",
"=  c #AEC2FF",
"-  c #AFC3FF",
";  c #A8C7FD",
":  c #AEC4FD",
">  c #ADC6FC",
",  c #ACC7FC",
"<  c #AFC6FC",
"1  c #AEC7FD",
"2  c #AFC5FE",
"3  c #AAC9F8",
"4  c #ABCAF9",
"5  c #A8C8FB",
"6  c #AAC8FA",
"7  c #ABC9FB",
"8  c #ACC8FA",
"9  c #ADC9FB",
"0  c #AEC8FB",
"q  c #ADCCFB",
"w  c #A9C9FC",
"e  c #AAC8FC",
"r  c #ABC9FD",
"t  c #AACAFD",
"y  c #A9C8FE",
"u  c #AAC9FF",
"i  c #ABC9FF",
"p  c #ABCAFF",
"a  c #ADC8FD",
"s  c #AFC9FC",
"d  c #ACCAFC",
"f  c #AECAFC",
"g  c #AFCBFD",
"h  c #AFC8FE",
"j  c #AEC9FE",
"k  c #ACCAFE",
"l  c #ACCAFF",
"z  c #ADCBFF",
"x  c #AECDFC",
"c  c #AFCEFD",
"v  c #B0C7FB",
"b  c #B0C5FC",
"n  c #B1C6FD",
"m  c #B0C7FD",
"M  c #B2C7FC",
"N  c #B0C5FE",
"B  c #B0C4FF",
"V  c #B1C5FF",
"C  c #B0C6FF",
"Z  c #B1C6FF",
"A  c #B1C7FF",
"S  c #B2C7FE",
"D  c #B2C6FF",
"F  c #B2C7FF",
"G  c #B3C7FF",
"H  c #B1C8FC",
"J  c #B3C8FD",
"K  c #B2C9FD",
"L  c #B1CBFC",
"P  c #B0CAFD",
"I  c #B3CAFC",
"U  c #B1C8FE",
"Y  c #B0C9FF",
"T  c #B2C8FF",
"R  c #B3C8FF",
"E  c #B2C9FF",
"W  c #B3C9FF",
"Q  c #B1CBFE",
"!  c #B1CAFF",
"~  c #B3CAFE",
"^  c #B3CAFF",
"/  c #B4CBFD",
"(  c #B4C9FE",
")  c #B0CCFC",
"_  c #B1CDFC",
"`  c #B1CDFD",
"'  c #B2CCFD",
"]  c #B2CEFD",
"[  c #B3CEFD",
"{  c #B0CCFE",
"}  c #B1CDFF",
"|  c #B3CDFE",
" . c #B2CCFF",
".. c #B3CDFF",
"X. c #B2CEFE",
"o. c #B3CFFE",
"O. c #B5CCFE",
"+. c #B6CDFF",
"@. c #B4CFFE",
"#. c #B4CEFF",
"$. c #B5CFFF",
"%. c #B4D0FF",
"&. c #B5D0FF",
"*. c #B5D1FF",
"=. c #B6D0FF",
"-. c #B7D1FF",
";. c #B5D2FE",
":. c #B6D2FF",
">. c #B6D3FF",
/* pixels */
"y y y y y y y y o 3 O O 3 0 x x  .x _ %. .x %.%._ _ _ _ %.%.%.;.",
"; ; ; y ; ; 5 3 3 0 3 O 3 q x x  .%.%. .%._ _ _ %._ _ _ _ %.;.;.",
"y y y y y y 3 y 3 y y 3 q q x _  ._ _  . ._ _ %._ _ _ _ >. .;.;.",
"y z y y y y y y 3 0 y 3 3 q  .x _ _ x %.%._ _  .%.%.%.%. .>.>.;.",
"z z z z z z y z 3 y 0 0 0 x _  ._  . .%. ._  .%. .>.[ [ %.%.>.>.",
"y 1 z ; z 3 O z 0 3 0 3 0 x  .x _ c  . .%. . . . . .[ [ %.%.%. .",
"z z ; z z 3 1 z 1 z z @ 0 x  .x _ _ [ [ _ _ [ [  .%.[ >.[ >.>.[ ",
"z y z z ; y 1 @ 1 z 0 3 0 x  . . ._ [ [  ._ [ [ _ _ [ [ [ [  .>.",
"z 1 1 1 1 z 1 1 1 y 0 0 0  . . . . . .>.[ [ [  .[ [ +.>.[ -.[ >.",
"U z z O ; 1 z @ 1 1 0 0 U U x U  . . . .[ [  .( [ [ [ [ [ [ [ [ ",
"z m 1 @ 1 z 1 1 1 1 @ 1 U z U  . . . . .(  .[ [ [ [ [ [ [ [ [ [ ",
"1 z 1 ; 1 1 z 1 1 1 1 1 z U U U 0  .U  .U [ [ [ [ +.+.-.-.+.-.+.",
"1 1 1 @ 1 1 U 1 U 1 m m m U U U  .U 0  .U  .>.>.[ [ >.+.-.-.-.-.",
"@ z 1 X 1 1 m z m z m m m U U (  .0 L x x  .U  .( [ [ [ +.>.-.+.",
"@ @ 1 O 1 U z U m U m m m m U U L z z L 0 U  .U  .U [ [ [ [ [ [ ",
"@ 1 1 X 1 1 m m m U m m m m U U v L 0 v L  . . . ._ ( [ +.[ [ -.",
"V m m % m m ( U m G m m V G m m v v v v U U ( U [ ( [ ( ( [ +.+.",
"m m m 1 m U ( U m m m m V m m m m v v m U U U U U ( U ( [ ( +.+.",
"m V 1 m V 1 1 m m G m V % m m m m v m U U U U U [ ( U [ I O.( +.",
"% % % % % % % 1 % V 1 % m m m G m L U U U U U ( U ( U ( I ( ( [ ",
"1 % % 1 1 % % % X X % 1 V m G G ( U U U ( U ( m ( U U ( ( ( L I ",
"m % 1 % % % X X X % % % V m m m ( U ( U [ U m ( U U U m L ( I I ",
"V V % V V   % %   V 1 %   V V m m G G G m m G G U ( G G v J ( ( ",
"% % % % V     %     % % V G G V G m m G G G G m G m v G G J J J ",
"V % % % % %     % % % % % m V G m V V V V V V V m m V G V G J J ",
"V V V %   % %       %     V V V V m V V V V V V G m m V m G J v ",
"% V % % %         % % % V V V V V V V V V V V % V V m m G v b b ",
"  %   % % % % V %   V   V V V % m % % V V % V V V V G G G b G b ",
"  % % % % % % % % V % V % V V V V V % % V V V V % V V V G V m V ",
"% %       %       % V % V V V V V % V %   V   V V V V V V m V m ",
"% % % % %   %     V % V % V % % % %   % V   V   V % V V m m J G ",
"      % %   % %   % % % % % V   V V % %     V V % V V V V G G G "
};
