/* XPM */
static char *_c25cb3243fc443292a8c28e8ca2d18eO0xGB4txEGG8YTn2[] = {
/* columns rows colors chars-per-pixel */
"32 32 20 1 ",
"  c #CAD4DE",
". c #CCD6E0",
"X c #CED8E2",
"o c #CFD9E3",
"O c #D3D9E5",
"+ c #D0DAE4",
"@ c #D1DBE5",
"# c #D2DAE5",
"$ c #D5DBE7",
"% c #D6DCE8",
"& c #D7DDE9",
"* c #D8DEEA",
"= c #D9DFEB",
"- c #D9E0EA",
"; c #DAE1EB",
": c #DBE2EC",
"> c #DDE3EF",
", c #DDE4EE",
"< c #DFE5F1",
"1 c #DFE6F0",
/* pixels */
"                                ",
"................................",
"................................",
"................................",
"XXXXXXXX.+.+.+.+.++.+.+..+.++.+.",
"XXXXXXXX+.+.+.+.+..+.+.++.+..+.+",
"XXXXXXXX.+X..+.+..+.+.+..+.+X.+.",
"+X+X+X+XX+++X+X++++X+X+XX+X+++++",
"++++++++++++++++++++++++++++++++",
"X++X+++X+XX++++XX++++X++X+X++XX+",
"@@+@+++$@@+++++$+++++++++++@@@@@",
"$@+@$+++$+$+$+++$@$++$++$+$+$@+@",
"+$O$O+O++$O$O+O+++O$O$OOO+O+++O$",
"O+OOOOOOO+OOOOOO$OOOOOOOOOOO$OOO",
"$$$$$$$$$$$$$$$$$$$$$$$$$$$$$$$$",
"$$$$$$$$$$$$$$$$$$$$$$$$$$$$$$$$",
"%%$$%%%$%%$$%%%$$$%%$*$$*$$$$*$$",
"********************************",
"**%****%**%****%*%*%*$******$***",
"*%*%*%%**%*%*%%*%*%**$***$$***$*",
"*-;*;*;;*-;*--;;*;**;;***;*;*;*;",
";*;*;***;*;**;**;*;*;*;*;;**;***",
";;;;;;;;;;;;;;;;;;;;;;;;;;;;;;:;",
"::::::::::::::::::::::::::::::::",
"::::::::::::::::::::::::::::::::",
":::::::::::::::::::::::;::::::::",
">,,,,,,,,,>>,,,,,,,,,,>>,,,,,,,,",
",,,,,,,,,,,>,,,,,,,,,,>>,,,,,,,,",
">>>>,,>>>>>>,>>>,,>>>>><>>><,,,,",
"11<<111111111111111111111><<1111",
"11<<<<1<<<<<11<<<<1<<<<<11<<<<11",
"<<<<<<<<<<<<<1<<<<<<<<<<<1<<<<<1"
};
