/* XPM */
static char *_d65a2a1ec19412482bdefd93bd541d54jy4OoX6xGZt1jE9[] = {
/* columns rows colors chars-per-pixel */
"32 32 188 2 ",
"   c None",
".  c #080810",
"X  c #080911",
"o  c #090A12",
"O  c #0A0C14",
"+  c #0B0C14",
"@  c #0E121A",
"#  c #3D261F",
"$  c #0F1523",
"%  c #131921",
"&  c #141B28",
"*  c #101D2D",
"=  c #101D2E",
"-  c #121E2E",
";  c #141D2C",
":  c #011838",
">  c #001839",
",  c #00183A",
"<  c #00183B",
"1  c #00193D",
"2  c #00193E",
"3  c #00193F",
"4  c #101E31",
"5  c #111E31",
"6  c #121F31",
"7  c #1C2027",
"8  c #1F2126",
"9  c #16202C",
"0  c #15202F",
"q  c #182029",
"w  c #1C2229",
"e  c #1E242B",
"r  c #132033",
"t  c #152030",
"y  c #132035",
"u  c #132036",
"i  c #122037",
"p  c #192536",
"a  c #12213A",
"s  c #1C3939",
"d  c #1D3B3A",
"f  c #202126",
"g  c #2F2423",
"h  c #282224",
"j  c #21262C",
"k  c #372926",
"l  c #41271E",
"z  c #4B291B",
"x  c #442D24",
"c  c #40342E",
"v  c #4C372C",
"b  c #5C3927",
"n  c #5B3D2D",
"m  c #4E3C32",
"M  c #603722",
"N  c #623823",
"B  c #663C24",
"V  c #603F2D",
"C  c #6A4C39",
"Z  c #6E513E",
"A  c #70513B",
"S  c #74553C",
"D  c #7B563F",
"F  c #011940",
"G  c #011B44",
"H  c #011B45",
"J  c #031D47",
"K  c #021C48",
"L  c #021D4C",
"P  c #031D4D",
"I  c #051F4F",
"U  c #031E51",
"Y  c #041F55",
"T  c #0E2041",
"R  c #0B2049",
"E  c #0A204D",
"W  c #102244",
"Q  c #172744",
"!  c #1E304E",
"~  c #062057",
"^  c #0A2657",
"/  c #052058",
"(  c #042059",
")  c #05215B",
"_  c #07245F",
"`  c #0C2A5F",
"'  c #0D2C5E",
"]  c #1E3153",
"[  c #1F3457",
"{  c #1D345D",
"}  c #21375E",
"|  c #0A2967",
" . c #0C2C6C",
".. c #0D2D6E",
"X. c #0E2E6F",
"o. c #1F3866",
"O. c #113372",
"+. c #133477",
"@. c #14377D",
"#. c #18437C",
"$. c #165974",
"%. c #18567F",
"&. c #244073",
"*. c #244278",
"=. c #25427A",
"-. c #25447E",
";. c #644E40",
":. c #735440",
">. c #795A46",
",. c #7C5A44",
"<. c #7D6250",
"1. c #805E47",
"2. c #845F46",
"3. c #836141",
"4. c #8A664C",
"5. c #8D684E",
"6. c #906B50",
"7. c #956F52",
"8. c #9B7457",
"9. c #99745A",
"0. c #9D7558",
"q. c #9F7658",
"w. c #2A8469",
"e. c #2C8F70",
"r. c #AC8265",
"t. c #AD8367",
"y. c #B58A63",
"u. c #B88B68",
"i. c #BA8D69",
"p. c #BD906B",
"a. c #BF916B",
"s. c #C0926C",
"d. c #C39575",
"f. c #CD9D73",
"g. c #CC9C7C",
"h. c #1B3D81",
"j. c #1B3E82",
"k. c #194E83",
"l. c #1F438A",
"z. c #1B418C",
"x. c #1E448F",
"c. c #1F4F98",
"v. c #234D84",
"b. c #214488",
"n. c #25689A",
"m. c #27739C",
"M. c #2C54A1",
"N. c #285EA4",
"B. c #2956AC",
"V. c #2A57AD",
"C. c #2A58AF",
"Z. c #2B59B1",
"A. c #2C5AB2",
"S. c #2E5DB6",
"D. c #2D6EB5",
"F. c #3060BB",
"G. c #3161BD",
"H. c #3163BD",
"J. c #3165BD",
"K. c #3172BF",
"L. c #3174C0",
"P. c #3176C0",
"I. c #317AC0",
"U. c #457BC4",
"Y. c #3684B4",
"T. c #339CB4",
"R. c #33A9B7",
"E. c #33A0BE",
"W. c #5EA7BE",
"Q. c #4ACEA9",
"!. c #42D0A3",
"~. c #5DCAB8",
"^. c #3187C2",
"/. c #3192C4",
"(. c #3195C5",
"). c #3196C4",
"_. c #608BC9",
"`. c #7EA8C3",
"'. c #74B9D4",
"]. c #D3A284",
"[. c #DCA987",
"{. c #DFAC8B",
"}. c #E1AE8D",
"|. c #83BAD3",
" X c #88C1CA",
".X c #87D5CA",
"XX c #9ADDCF",
"oX c #C0E8DF",
/* pixels */
"                                                                ",
"                        C C C C                                 ",
"                      ,.4.7.7.5.1.                              ",
"                    Z 6.i.f.f.a.8.:.                            ",
"                  q <.i.f.f.f.f.s.9.j                           ",
"                  q <.i.f.f.[.{.g.9.j                           ",
"                  q ;.q.a.f.}.].r.>.e                           ",
"                  ; v D q.y.d.r.3.n e                           ",
"                  q l b A 3.3.S V z w                           ",
"                    8 c A 3.3.S m f                             ",
"                    q k M B B N x q                             ",
"                    q h # # # # g q                             ",
"                    q q q q q s d q                             ",
"                  q q q q q q w.e.q q                           ",
"                0 E b.M.M.M.M.`. Xm.^ a                         ",
"              ! -.x.C.G.G.G.G.W..X|.n.v.}                       ",
"            & } G.G.G.G.L.P.P.T.~.XX'.U.&.q                     ",
"            q ] A.G.G.G.L.(.(.).R.Q.oX_.&.q                     ",
"            q a  .A.G.P.^./.).).(.T.!.Y.&.q                     ",
"            ; 4 H ` O.c.I.(.).).^.D.$.N.&.q                     ",
"            q = > > H | #.k.%.%.k.x.z.B.&.9                     ",
"            q - > > 3 > > > : : K | S.B.o.q                     ",
"            9 = > > E L > > > > H | S.+.T q                     ",
"                6 E ( L > > > > H | S.{ t                       ",
"    . . . . . @ p l.X.~ H > > > H _ @.Q                         ",
"  . . . . . . + ; =.j.X.~ H > F P / R u                         ",
". . . . . . . . . % =.j./ ) F L ~ E 0                           ",
". . . . . . . . . . & W ) ) 3 L R 0                             ",
". . . . . . . . . . O $ y y - 6 t                               ",
"  . . . . . . . . .                                             ",
"    . . . . . . .                                               ",
"                                                                "
};
