/* XPM */
static char *d77134a08db24faef8dcc77e0d9b7a6d6SyglczsoTx4KFsK[] = {
/* columns rows colors chars-per-pixel */
"32 32 165 2 ",
"   c None",
".  c #070810",
"X  c #040B13",
"o  c #040B15",
"O  c #030C14",
"+  c #020D15",
"@  c #030D15",
"#  c #050C17",
"$  c #080810",
"%  c #001018",
"&  c #00111D",
"*  c #001324",
"=  c #021A21",
"-  c #01142A",
";  c #00152C",
":  c #00152E",
">  c #00152F",
",  c #01152F",
"<  c #021630",
"1  c #001632",
"2  c #001634",
"3  c #031737",
"4  c #021F36",
"5  c #03173A",
"6  c #01183C",
"7  c #00193D",
"8  c #001B3C",
"9  c #032537",
"0  c #02203A",
"q  c #02213E",
"w  c #031A43",
"e  c #011B45",
"r  c #031B46",
"t  c #011E48",
"y  c #031E51",
"u  c #041D50",
"i  c #031F57",
"p  c #051F55",
"a  c #012441",
"s  c #012541",
"d  c #033047",
"f  c #022151",
"g  c #032257",
"h  c #05205C",
"j  c #023552",
"k  c #023852",
"l  c #052263",
"z  c #05236A",
"x  c #06246D",
"c  c #082D69",
"v  c #072570",
"b  c #072672",
"n  c #072674",
"m  c #072675",
"M  c #07287A",
"N  c #072A7A",
"B  c #072B7A",
"V  c #062F79",
"C  c #072C7A",
"Z  c #072D7A",
"A  c #08287B",
"S  c #0A2F7C",
"D  c #043977",
"F  c #043A77",
"G  c #033E76",
"H  c #033F76",
"J  c #043C77",
"K  c #043E77",
"L  c #063079",
"P  c #053478",
"I  c #0B327D",
"U  c #043F78",
"Y  c #004964",
"T  c #00496B",
"R  c #00496D",
"E  c #00496F",
"W  c #024175",
"Q  c #024375",
"!  c #034176",
"~  c #034276",
"^  c #024475",
"/  c #024575",
"(  c #014674",
")  c #004D73",
"_  c #004E73",
"`  c #014974",
"'  c #014B74",
"]  c #034D75",
"[  c #044B7B",
"{  c #005073",
"}  c #005273",
"|  c #005A75",
" . c #005C75",
".. c #005D75",
"X. c #015C77",
"o. c #005F76",
"O. c #03527A",
"+. c #03577A",
"@. c #025F7B",
"#. c #006176",
"$. c #006376",
"%. c #006476",
"&. c #006477",
"*. c #016179",
"=. c #006978",
"-. c #006E7A",
";. c #00747A",
":. c #00757A",
">. c #00797B",
",. c #239A7C",
"<. c #239B7F",
"1. c #64B17A",
"2. c #7BC47B",
"3. c #A0D379",
"4. c #128681",
"5. c #1D9184",
"6. c #1D9286",
"7. c #1E9D88",
"8. c #218A88",
"9. c #258E8E",
"0. c #239B80",
"q. c #239D83",
"w. c #219C86",
"e. c #26948F",
"r. c #249989",
"t. c #249C8D",
"y. c #299C91",
"u. c #23A08C",
"i. c #28A78E",
"p. c #29AE8B",
"a. c #29AF8B",
"s. c #2BB28D",
"d. c #2CB68E",
"f. c #2DB88F",
"g. c #2BA891",
"h. c #2EB290",
"j. c #2DB793",
"k. c #2DB890",
"l. c #2EBA90",
"z. c #2FBB91",
"x. c #2FBD92",
"c. c #32BC97",
"v. c #31C093",
"b. c #31C194",
"n. c #32C395",
"m. c #33C196",
"M. c #33C495",
"N. c #34C696",
"B. c #34C796",
"V. c #34C897",
"C. c #35C997",
"Z. c #36CB98",
"A. c #36CB99",
"S. c #37CD99",
"D. c #37CE9A",
"F. c #38CF9A",
"G. c #38D09B",
"H. c #38D19B",
"J. c #39D29C",
"K. c #5DC888",
"L. c #5DD590",
"P. c #6DE795",
"I. c #45E1A0",
"U. c #83CD80",
"Y. c #9EE984",
/* pixels */
"                                                                ",
"                                                                ",
"                                                                ",
"                                                                ",
"                                                                ",
"                                                                ",
"                      { =.>.>.>.>...' } ' B                     ",
"                    { &.#.#.| [ [ ! ( } ` g x                   ",
"                    ..:.@.` F B A A P ( T 8 i z                 ",
"                  ..>.>...! V V M A V F R t e l A               ",
"              { #.>.>.>...} } ' V A G ' ` B A A A A             ",
"              { } ..>.>.1.3.U.l.r.g.g.q.5.' L A h -             ",
"              k ( U ..:.2.Y.L.l.p.N.V.c.q.j f y 6 %             ",
"            $ d ! B G -.K.P.V.a.c.V.H.B.,.q 1 1 ; %             ",
"            $ d ! M A *.m.I.M.f.G.H.S.v.,.0 * 1 ; %             ",
"            $ d ! B A ( t.M.f.G.F.G.v.s.,.= 2 6 ; %             ",
"            $ d ' ( A B e.H.M.s.s.B.G.n.0.0 l b u %             ",
"            $ d ..&.! ( t.V.d.a.n.S.J.S.h.c n A p %             ",
"            $ d ..:.*.&.7.f.s.m.G.J.J.J.c.I A A p %             ",
"            $ 9 Y *.@.*.4.5.8.y.y.y.y.y.9.S A A p %             ",
"            $ o 5 b A A +.O.A A B A A A A A A n u %             ",
"            $ $ o ; A A ! ! A A A A A A A A A e &               ",
"              $ $ o 1 x ! G A A A A A A A A w -                 ",
"                $ $ X 5 a a w w w w w w w w -                   ",
"                  $ $ @ @ @ @ @ @ @ @ @ % %                     ",
"                    $ $ $ $ $ $ $ $ $ $                         ",
"                                                                ",
"                                                                ",
"                                                                ",
"                                                                ",
"                                                                ",
"                                                                "
};
