/* XPM */
static char *_239d82707244b7a889d5594dc69095aGHQK8tpvfd1hLqQz[] = {
/* columns rows colors chars-per-pixel */
"32 32 148 2 ",
"   c None",
".  c #080810",
"X  c #090A12",
"o  c #0B0C14",
"O  c #0B0D15",
"+  c #12171F",
"@  c #14151C",
"#  c #121720",
"$  c #2B1E22",
"%  c #1F2027",
"&  c #182029",
"*  c #1A2028",
"=  c #1C2229",
"-  c #1E232A",
";  c #212026",
":  c #202027",
">  c #262025",
",  c #292025",
"<  c #242428",
"1  c #272728",
"2  c #25282D",
"3  c #292829",
"4  c #3B2021",
"5  c #3C2222",
"6  c #332826",
"7  c #3F2A27",
"8  c #37312F",
"9  c #3F3329",
"0  c #3D3837",
"q  c #412020",
"w  c #442220",
"e  c #4B2F24",
"r  c #4E2F24",
"t  c #4E3124",
"y  c #42362C",
"u  c #5A3624",
"i  c #423832",
"p  c #493E35",
"a  c #633F26",
"s  c #5D4536",
"d  c #684227",
"f  c #694327",
"g  c #6A4427",
"h  c #6C4627",
"j  c #614329",
"k  c #66422E",
"l  c #6E4728",
"z  c #66492F",
"x  c #714A28",
"c  c #714B2A",
"v  c #734C29",
"b  c #764E2C",
"n  c #77502D",
"m  c #76502E",
"M  c #6A4833",
"N  c #604D3F",
"B  c #6A4C39",
"V  c #6B4D39",
"C  c #6D513B",
"Z  c #6F503A",
"A  c #785230",
"S  c #7A5230",
"D  c #7A5331",
"F  c #71523D",
"G  c #76563D",
"H  c #74543F",
"J  c #73583F",
"K  c #7D5938",
"L  c #78583D",
"P  c #7E5D3F",
"I  c #7F5E3F",
"U  c #574941",
"Y  c #584A41",
"T  c #765640",
"R  c #7F5E40",
"E  c #785F4E",
"W  c #815937",
"Q  c #825A39",
"!  c #845B3A",
"~  c #835D3C",
"^  c #855E3D",
"/  c #865E3C",
"(  c #805F40",
")  c #825F47",
"_  c #826040",
"`  c #836141",
"'  c #826043",
"]  c #866141",
"[  c #8A6140",
"{  c #8F6645",
"}  c #8F6B4B",
"|  c #8B694C",
" . c #926C4D",
".. c #8A6C50",
"X. c #8E6D55",
"o. c #956E53",
"O. c #906E57",
"+. c #8C7155",
"@. c #8E7256",
"#. c #8D745A",
"$. c #9D7353",
"%. c #9A7354",
"&. c #9B7357",
"*. c #9C7455",
"=. c #9E7454",
"-. c #9D7656",
";. c #9E7657",
":. c #91795F",
">. c #997B5F",
",. c #A37959",
"<. c #A1785B",
"1. c #A87D5E",
"2. c #A97E5F",
"3. c #A97F5F",
"4. c #967B60",
"5. c #9C836A",
"6. c #9A836C",
"7. c #AB8061",
"8. c #AA8162",
"9. c #AA8163",
"0. c #AC8162",
"q. c #AC8264",
"w. c #AE8364",
"e. c #AB8466",
"r. c #AD8567",
"t. c #B58967",
"y. c #B78A67",
"u. c #B18D72",
"i. c #BC8F70",
"p. c #C6976F",
"a. c #C09374",
"s. c #C99A71",
"d. c #C49678",
"f. c #CC9D7E",
"g. c #B69880",
"h. c #BAA08B",
"j. c #BEA996",
"k. c #D5A381",
"l. c #D9A784",
"z. c #DBA989",
"x. c #E2AF8F",
"c. c #E6B294",
"v. c #C9C1B5",
"b. c #D1D7D1",
"n. c #D5DBD5",
"m. c #D8E4E2",
"M. c #D8E5E3",
"N. c #D9E5E3",
/* pixels */
"                                                                ",
"                                                                ",
"                                                                ",
"                                                                ",
"                              T T T H F                         ",
"                            ) s.p.p.y.o.V                       ",
"                            ,.t.s.l.z.d.%.                      ",
"                          N %.w.k.x.c.f.| 2                     ",
"                        & i ' ;.i.a.i.w.C =                     ",
"                        & 8 Z P ' ` ' L s =                     ",
"                      & & &   V ( ' H V   & &                   ",
"                    &                         & &               ",
"                    &     0.$.v v v v v A 1.  & &               ",
"                    & E 0.0.,.[ n ! >.6.{ 2.0.0 &               ",
"                    & O.0.0.0.2.! ;.j.v.g.q.w.Y &               ",
"                    & X.7.0.0.0.0.7.7.h.n.u.7.U &               ",
"                    & T ;.0.0.0.0.0.0.r.g.n.5.s &               ",
"                    & z ` ;.0.0.0.0.-. .4.M.:.y &               ",
"                    & j S ! { { { { ^ K @.m.#.9 &               ",
"                    & j v v v v v v v n | m.#.9 &               ",
"                    & j v v v v v v v v I b.+.9 &               ",
"                    & j v v v v v v v v D e.W 9 &               ",
"            . . . o & j c v v v v v v v D 1.K y &               ",
"          . . . . o & t f v v v v v v v n  .k 6 &               ",
"          . . . . . # $ t f v v v v v v c M 7 >                 ",
"          . . . . . . # $ t g g c v l f a 5 ;                   ",
"            . . . . . . # , q w h c u q 4 &                     ",
"                  . . . . @ : : 1 3 < % ;                       ",
"                                                                ",
"                                                                ",
"                                                                ",
"                                                                "
};
