/* XPM */
static char *cabfa8b9799441d3852aac446445cf08Jqnd5z0OSrYBTIqx[] = {
/* columns rows colors chars-per-pixel */
"32 32 128 2 ",
"   c None",
".  c #0F0B0D",
"X  c #0F0B0E",
"o  c #100C0E",
"O  c #100C0F",
"+  c #110C0F",
"@  c #110D0F",
"#  c #110D10",
"$  c #120D10",
"%  c #120E10",
"&  c #120E11",
"*  c #130E11",
"=  c #120F11",
"-  c #130F11",
";  c #130F12",
":  c #140F12",
">  c #131012",
",  c #141012",
"<  c #141013",
"1  c #151013",
"2  c #141113",
"3  c #151113",
"4  c #151114",
"5  c #161114",
"6  c #161115",
"7  c #151214",
"8  c #161214",
"9  c #161215",
"0  c #171215",
"q  c #161315",
"w  c #171315",
"e  c #171216",
"r  c #171316",
"t  c #171416",
"y  c #181317",
"u  c #181416",
"i  c #181417",
"p  c #191417",
"a  c #181517",
"s  c #191517",
"d  c #191418",
"f  c #191518",
"g  c #1A1519",
"h  c #191619",
"j  c #1A1619",
"k  c #1A1719",
"l  c #1B161A",
"z  c #1B171A",
"x  c #1B181A",
"c  c #1B181B",
"v  c #1C181B",
"b  c #1C191B",
"n  c #1C181C",
"m  c #1D181C",
"M  c #1D191C",
"N  c #1D191D",
"B  c #1E1A1D",
"V  c #1E1B1D",
"C  c #1E1A1E",
"Z  c #1F1A1E",
"A  c #1E1B1E",
"S  c #1F1B1E",
"D  c #1F1B1F",
"F  c #1F1C1E",
"G  c #1F1C1F",
"H  c #201B1F",
"J  c #201C1F",
"K  c #201C20",
"L  c #201D20",
"P  c #211D20",
"I  c #211D21",
"U  c #211E21",
"Y  c #221E21",
"T  c #221E22",
"R  c #221F22",
"E  c #231F22",
"W  c #231F23",
"Q  c #232023",
"!  c #242023",
"~  c #242024",
"^  c #242124",
"/  c #252124",
"(  c #252125",
")  c #252225",
"_  c #262226",
"`  c #262326",
"'  c #262327",
"]  c #272327",
"[  c #272427",
"{  c #272428",
"}  c #282428",
"|  c #282528",
" . c #282529",
".. c #292629",
"X. c #29262A",
"o. c #2A272A",
"O. c #2A262B",
"+. c #2A272B",
"@. c #2B282B",
"#. c #2B282C",
"$. c #2C282C",
"%. c #2C292C",
"&. c #2C282D",
"*. c #2C292D",
"=. c #2D2A2E",
"-. c #2E2A2E",
";. c #2E2B2F",
":. c #2F2B30",
">. c #2F2C30",
",. c #302C30",
"<. c #302D31",
"1. c #302D32",
"2. c #312D32",
"3. c #312E32",
"4. c #322F33",
"5. c #333034",
"6. c #343035",
"7. c #343136",
"8. c #353136",
"9. c #353236",
"0. c #373338",
"q. c #373439",
"w. c #39353A",
"e. c #39353B",
"r. c #3A363C",
"t. c #3B373D",
"y. c #3C383D",
"u. c #3C383E",
/* pixels */
"      @ @ @ @ @ @ @ . @ @ @ - @ @ @ @ @ - o @ o - o @ @ @       ",
"    u u.e.9.u.0.0.9.A :.t.4.t.u.t.e.5.u.*.A 9.0.0.t.9.e.t.y     ",
"    3 3.3.*.[ { [ Q y b ~ { { ~ { [ [ ~ b y ~ ~ ] { #.3.3.3     ",
"    3 3.#.h - - . @ : 3 w : : 3 > 3 3 3 3 : @ o : - h *.3.3     ",
"    3 | A - I ~ w y ~ [ | | | | [ [ | | [ ~ h w W I - A | 3     ",
"    - I A : ~ #.v A *.@.| *.| | #.| *.| @.*.A x #.~ w A I -     ",
"    w q.| @ h J 3 w A A A A b b A A A b b J w w A h @ { 0.w     ",
"    3 ;.I > I I I ~ ~ ~ n o h ~ I u @ h ~ ~ ~ I I I > I >.3     ",
"    3 *.I t *.3.3.0.9.9.$.- ~ 9.9.[ - $.9.9.9.3.3.*.t I *.3     ",
"    3 #.A w | @.{ | | | | - ~ *.#.~ - | | O.| | | | w F @.3     ",
"    > *.I - t d w t y w w o 3 h h w @ w w w u w h u - I :.>     ",
"    w *.G 2 ~ O.I 3 h O.| *.:.3.3.*.*.{ O.h 3 I O.~ : J #.3     ",
"    : @.A w #.>.#.h I 3.*.3.3.>.3.3.3.*.>.I h *.>.{ w A #.>     ",
"    . h > w ~ | | u H | | | { ~ ~ | O.{ | A h | | ^ w w u @     ",
"    w e.#.. @ - > @ . @ - - # - o - - - - . . - - - . O.e.w     ",
"    - *.G w ~ | | #.K - w { W O.O.W { w - D O.{ { { w A #.3     ",
"    3 *.A : H ! ~ ! ! 3 J ~ ~ ~ ^ ~ ~ J : ~ ~ ! ~ A - A | 3     ",
"    : | A - b A h A b @ y I h y y h I w - b A h A A - H @.:     ",
"    - ~ v o o o @ - 3 > 3 @ 3 3 3 3 - - 3 - - o o o . b ^ -     ",
"    - E y o y : w ~ [ [ @.[ | @.@.#.~ #.| [ ~ y : y o y I -     ",
"    - ^ v - y : u E E I E E I I I I I ~ I ! E u w y - n ~ -     ",
"    @ A 3 o : : - h h w h w y w w w w v w u h : - : . : A -     ",
"    @ A h @ y A v h h 3 o : h v h h : o w h h A h y - h A -     ",
"    - { A w E | | ~ ] E - A ] | | | b - I ] ~ | | W : A { -     ",
"    - I w - A I D D I I - n E H K E v : K W D D ! H - e W -     ",
"    - ^ x X w w - - w : o : y : : w : o : w ; - 3 w . n W -     ",
"    - ^ h X w e # # : v n y v A n v y n n : # . w w - y ^ -     ",
"    - I w O d h : : y n A h n n n A n n n h : : h y . w I -     ",
"    # n w X w e @ - y y w y : w : w y w y y - # y : # y c -     ",
"    o n e . X # o o o o . # # o o o # o o o . . # o o : h -     ",
"    o y e . w n I n K y X - y I I y # o y A n W n w o y v o     ",
"    # n e X w n v n h y # e y v n y y # v y v n y w o y h @     "
};
