/* XPM */
static char *ef845f1fecf74ea299b5435898d1f01cyILWMtRt3jasjH6J[] = {
/* columns rows colors chars-per-pixel */
"32 32 141 2 ",
"   c None",
".  c #0F0B0D",
"X  c #0F0B0E",
"o  c #0F0C0E",
"O  c #100B0E",
"+  c #100C0E",
"@  c #100C0F",
"#  c #110C0F",
"$  c #100D0F",
"%  c #110D0F",
"&  c #110D10",
"*  c #120D10",
"=  c #120E10",
"-  c #120E11",
";  c #130E11",
":  c #120F11",
">  c #130F11",
",  c #130F12",
"<  c #140F12",
"1  c #131012",
"2  c #141012",
"3  c #141013",
"4  c #151013",
"5  c #141113",
"6  c #151113",
"7  c #151114",
"8  c #161114",
"9  c #161115",
"0  c #151214",
"q  c #161214",
"w  c #161215",
"e  c #171215",
"r  c #161315",
"t  c #171315",
"y  c #171216",
"u  c #171316",
"i  c #171416",
"p  c #181317",
"a  c #181416",
"s  c #181417",
"d  c #191417",
"f  c #181517",
"g  c #191418",
"h  c #191518",
"j  c #1A1519",
"k  c #191618",
"l  c #1A1619",
"z  c #1A1719",
"x  c #1B161A",
"c  c #1A171A",
"v  c #1B171A",
"b  c #1C171B",
"n  c #1B181A",
"m  c #1B181B",
"M  c #1C181B",
"N  c #1C191B",
"B  c #1C181C",
"V  c #1D181C",
"C  c #1C191C",
"Z  c #1D191C",
"A  c #1E191D",
"S  c #1D1A1C",
"D  c #1D1A1D",
"F  c #1E1A1D",
"G  c #1E1A1E",
"H  c #1F1A1E",
"J  c #1E1B1E",
"K  c #1F1B1E",
"L  c #1F1B1F",
"P  c #1F1C1E",
"I  c #1F1C1F",
"U  c #201C1F",
"Y  c #201D1F",
"T  c #201C20",
"R  c #201D20",
"E  c #211D20",
"W  c #211D21",
"Q  c #211E21",
"!  c #221E21",
"~  c #221E22",
"^  c #221F22",
"/  c #231F22",
"(  c #231F23",
")  c #232023",
"_  c #242023",
"`  c #242024",
"'  c #242124",
"]  c #242125",
"[  c #252125",
"{  c #252225",
"}  c #252226",
"|  c #262226",
" . c #262326",
".. c #262327",
"X. c #272427",
"o. c #272428",
"O. c #282428",
"+. c #282528",
"@. c #282529",
"#. c #292529",
"$. c #292629",
"%. c #29262A",
"&. c #2A262A",
"*. c #2A272A",
"=. c #2A272B",
"-. c #2B272B",
";. c #2B282B",
":. c #2B282C",
">. c #2C282C",
",. c #2C292C",
"<. c #2C292D",
"1. c #2D292D",
"2. c #2D292E",
"3. c #2D2A2E",
"4. c #2E2B2F",
"5. c #2F2C30",
"6. c #2F2C31",
"7. c #302C31",
"8. c #302D31",
"9. c #302D32",
"0. c #312E32",
"q. c #322E33",
"w. c #322F33",
"e. c #332F34",
"r. c #333034",
"t. c #333035",
"y. c #343035",
"u. c #343136",
"i. c #353136",
"p. c #353236",
"a. c #363237",
"s. c #363338",
"d. c #373439",
"f. c #383439",
"g. c #38353A",
"h. c #39353A",
"j. c #39353B",
"k. c #3A363B",
"l. c #3A363C",
"z. c #3B373D",
"x. c #3C383E",
/* pixels */
"      > > > > % > > . > > > > > > > > > . @ > > > o > >         ",
"    v x.s.s.z.u.g.e.r g.j.e.z.z.z.u.s.g.p 5.z.e.z.d.d.z.J       ",
"    i 0.0.&.{ { { P 1 P { { { ] { ] { E 1 J { { { o.5.0.v       ",
"    i 0.X.r . . . % r r r , r r r r r r 7 > . > 7 i o.0.v       ",
"    < { v . . . . J +.X.o.X.&.o.{ &.X.o.o.) @ ( { v p / r       ",
"    r { M . . . . ] >.&.;.;.&.&.&.=.&.&.>.o.> &.o.d b O.r       ",
"    v e.E . . . . 6 v i i v i i r v i i n i o f r > J 0.J       ",
"    i 5.J p &.{ <.>.<.;.v . . . . . . . ;.>.>.{ &.v J >.v       ",
"    r >.n n <.5.5.5.5.5.{ o . . . . . . >.5.0.>.>.J n ;.i       ",
"    r =.v v o.o.X.<.X.o.E . . . . . . . ] <.o...&.J d &.v       ",
"    r 0.J . > o o o o o . . . . . . . . o % > @ % . J 4.n       ",
"    r &.v v 0.e.o.> . o . . . . . . . . . . { 0.u.B d &.d       ",
"    < { v f &.<.<.1 . . . . . . . . . . . . &.>.&.v r { i       ",
"    > J p r J ( R % . . . . . . . . . . . . J ( J v r J 1       ",
"    v s.] > f f v v > . > v r v r v r . > v v r v > E s.J       ",
"    r &.v r { ..X.&.J . E o.{ =.....E > J o.o.{ { v i &.d       ",
"    r =.v , R E J { J . T ( L J L E E > V { J T E r f &.f       ",
"    r ..v & r < < r < . < r > > > r , & > r > < r & v ..r       ",
"    r E r O . . r E L { ( E { ] ] E E { U { r . < > r E r       ",
"    > ] v . . . J { { ..{ { o.{ ..{ ....{ { J % b < p ( r       ",
"    r E r . . . p { b V E J b b b b E J V { v O r > 6 R r       ",
"    . r > . . . O O O . . % O O % o O O O X % o . . > r &       ",
"    r =.J f &.=.>.{ =.b % U >.>.=.E > p &.{ >.=.&.b V &.v       ",
"    < E r , P { / E { E > ) { E { E r J { E ( ] E r > J r       ",
"    , ( p > b f r r J < & p b 6 V p & < V r r p b , r E r       ",
"    7 ( f X , > . & > r r < p p r < r r , & O . . . f ( r       ",
"    r E r @ b v & < p L U V T T T V L L b r . . . . , L r       ",
"    > V 7 @ p p & < b r p p p < p p p p p p . . . . 7 V <       ",
"    & V 7 . > @ . . > X . > & X O > O & > X X . . . < p >       ",
"    & p 7 X r b J p J > . > v J v < . . . . . . . & < v >       ",
"    & b < & r b V v V p & p V b V p > . . . . . . . < b >       ",
"    > r . & p r , > v < & r p < p r . . . . . . . . . r >       "
};
