/* XPM */
static char *_2002fd368a741a4ffd6d3c4bd68b331wlBmeDVNZq7cfLyk[] = {
/* columns rows colors chars-per-pixel */
"31 32 115 2 ",
"   c None",
".  c #0F0B0D",
"X  c #0F0B0E",
"o  c #100C0E",
"O  c #110C0F",
"+  c #100D0F",
"@  c #110D0F",
"#  c #110D10",
"$  c #120E10",
"%  c #120E11",
"&  c #130E11",
"*  c #130F11",
"=  c #130F12",
"-  c #140F12",
";  c #131012",
":  c #141012",
">  c #141013",
",  c #151013",
"<  c #141113",
"1  c #151113",
"2  c #151114",
"3  c #161114",
"4  c #161214",
"5  c #161215",
"6  c #171215",
"7  c #161315",
"8  c #171315",
"9  c #171216",
"0  c #171316",
"q  c #171416",
"w  c #181417",
"e  c #181418",
"r  c #191418",
"t  c #181518",
"y  c #191518",
"u  c #191519",
"i  c #1A1519",
"p  c #1A1619",
"a  c #1A1719",
"s  c #1A161A",
"d  c #1B161A",
"f  c #1A171A",
"g  c #1B171A",
"h  c #1C171B",
"j  c #1B181A",
"k  c #1B181B",
"l  c #1C181B",
"z  c #1C191B",
"x  c #1C181C",
"c  c #1D181C",
"v  c #1C191C",
"b  c #1D191C",
"n  c #1D1A1D",
"m  c #1E1A1D",
"M  c #1E1A1E",
"N  c #1E1B1E",
"B  c #1F1B1E",
"V  c #1F1B1F",
"C  c #1F1C1E",
"Z  c #201C1F",
"A  c #201C20",
"S  c #201D20",
"D  c #211D20",
"F  c #211E21",
"G  c #221E22",
"H  c #221F22",
"J  c #231F22",
"K  c #231F23",
"L  c #232023",
"P  c #242023",
"I  c #242024",
"U  c #242124",
"Y  c #242125",
"T  c #252125",
"R  c #252225",
"E  c #252226",
"W  c #262226",
"Q  c #262326",
"!  c #262327",
"~  c #272327",
"^  c #272427",
"/  c #282428",
"(  c #282528",
")  c #282529",
"_  c #292629",
"`  c #29262A",
"'  c #2A262A",
"]  c #2A272B",
"[  c #2B282B",
"{  c #2B282C",
"}  c #2C292D",
"|  c #2D292D",
" . c #2D292E",
".. c #2E2B2F",
"X. c #2F2C30",
"o. c #302D30",
"O. c #302D31",
"+. c #302D32",
"@. c #312E32",
"#. c #322F33",
"$. c #332F34",
"%. c #333034",
"&. c #343136",
"*. c #353236",
"=. c #353237",
"-. c #363237",
";. c #363337",
":. c #363338",
">. c #373439",
",. c #383439",
"<. c #39353A",
"1. c #3A363B",
"2. c #3A363C",
"3. c #3B373D",
"4. c #3C383E",
/* pixels */
"    * * * * * @ * . * * @ * * * * * * o * * @ * * * *         ",
"  2 4.,.&.3.&.,.#.e :.3.#.3.3.3.&.:.3.y ] 3.#.3.:.&.3.F     . ",
"  : @.@.] R R R V > V R R R R R R R F - V R R R / X.#.v     . ",
"  : @.] w - - @ . . . . . . . . . . . . . . . . > R #.v     . ",
"  * R h 2 P R 2 . . . . . . . . . . . . . . . . @ 2 L q     . ",
"  * R V 2 ~ ] q . . . . . . . . . . . . . . . . . y / y     . ",
"  2 %.R @ 9 y * . . . . . . . . . . . . . . . . . v #.V     . ",
"  * @.F 9 / R ] X.} } h . . . . . . . . . . . . . y } V     . ",
"  * } V y } } @.@.@.X.~ . . . . . . . . . . . . . y ] y     . ",
"  * ] V 2 ] [ R ] ^ R F . . . . . . . . . . . . . y ] k     . ",
"  : X.F . @ @ . . @ * . . . . . . . . . . . . . . k X.z     . ",
"  - ] V w @.@.] : . . . . . . . . . . . . . . . . q ] y     . ",
"  * R k q ] } } 2 . . . . . . . . . . . . . . . @ 2 R y     . ",
"  @ V y : V F F * . . . . . . . . . . . . . . . . : V :     . ",
"  : :./ @ y w w y * . . . . . . . . . . . . . . . V &.C     . ",
"  * ] V 2 R R ] ] F . . . . . . . . . . . . . . . w ] k     . ",
"  - ] V * V F V K A . . . . . . . . . . . . . . . w ] k     . ",
"  * R V # 2 2 * 2 * . . . . . . . . . . . . . . . w ^ w     . ",
"  * F y . - * . @ . . . . . . . . . . . . . . . . 2 F q     . ",
"  @ R h - y * . . . . . . . . . . . . . . . . . . 2 P w     . ",
"  * F 2 * 2 ; . . . . . . . . . . . . . . . . . . * F 2     . ",
"  . 2 : . . @ . . . . . . . . . . . . . . . . . . * 2 *     . ",
"  - } F q / } } R ] h . . . . . . . . . . . . . . y [ y     . ",
"  - F 2 - V K F L R F . . . . . . . . . . . . . . 2 Z q     . ",
"  * J w * y y 9 2 V 2 . . . . . . . . . . . . . . 2 F q     . ",
"  @ J h o * @ @ . . . . . . . . . . . . . . . . . 2 L y     . ",
"  * F 9 * y y * . . . . . . . . . . . . . . . . . - F 2     . ",
"  @ V 2 * 9 2 * . . . . . . . . . . . . . . . . . : h 2     . ",
"  o h 9 . * O . . . . . . . . . . . . . . . . . . - y *     . ",
"  o u 9 . - y V e V * . . . . . . . . . . . . . . - h -     . ",
"  @ y 9 * 2 v h h h u . . . . . . . . . . . . . . - y -     . ",
"  . * 2 * e 2 > - y - . . . . . . . . . . . . . . - 2 .     . "
};
