/* XPM */
static char *_4dda3d5a84d41f6cd30e20b5b0cca82fjW71dl0INuiD8uP[] = {
/* columns rows colors chars-per-pixel */
"32 32 3 1 ",
"  c None",
". c #282827",
"X c #F2F7F6",
/* pixels */
"                                ",
"                                ",
"                                ",
"                                ",
"                                ",
"                                ",
"                                ",
"                                ",
"                                ",
"                                ",
"                       .        ",
"                      ...       ",
"       ..            .....      ",
"      .....         ... ...     ",
"     .......       ...   ...    ",
"    ...  ....     ...      ..   ",
"   ...     .........        .   ",
"   ...      ........            ",
"    .       ........            ",
"            ........            ",
"            ........            ",
"            ..X..X..            ",
"             ......             ",
"              ....              ",
"                                ",
"                                ",
"                                ",
"                                ",
"                                ",
"                                ",
"                                ",
"                                "
};
