/* XPM */
static char *result[] = {
/* columns rows colors chars-per-pixel */
"32 32 3 1 ",
"  c #282827",
". c #F2F7F6",
"X c None",
/* pixels */
"XXXXXXXXXXXXXXXXXXXXXXXXXXXXXXXX",
"XXXXXXXXXXXXXXXXXXXXXXXXXXXXXXXX",
"XXXXXXXXXXXXXXXXXXXXXXXXXXXXXXXX",
"XXXXXXXXXXXXXXXXXXXXXXXXXXXXXXXX",
"XXXXXXXXXXXXXXXXXXXXXXXXXXXXXXXX",
"XXXXXXXXXXXXXXXXXXXXXXXXXXXXXXXX",
"XXXXXXXXXXXXXXXXXXXXXXXXXXXXXXXX",
"XXXXXXXXXXXXXXXXXXXXXXXXXXXXXXXX",
"XXXXXXXXXXXXXXXXXXXXXXXXXXXXXXXX",
"XXXXXXXXXXXXXXXXXXXX   XXXXXXXXX",
"XXXXXXXXX    XXXXXX     XXXXXXXX",
"XXXXXXXX      XXXX        XXXXXX",
"XXXXXXX   XX   XX   XXXXX  XXXXX",
"XXXXXX   XXXX  XX  XXXXXXXXXXXXX",
"XXXXX  XXXXXX  XX  XXXXXXXXXXXXX",
"XXXXXXXXXXXXX  XX  XXXXXXXXXXXXX",
"XXXXXXXXXXXXX  XX  XXXXXXXXXXXXX",
"XXXXXXXXXXXXX      XXXXXXXXXXXXX",
"XXXXXXXXXXXX        XXXXXXXXXXXX",
"XXXXXXXXXXXX        XXXXXXXXXXXX",
"XXXXXXXXXXXX        XXXXXXXXXXXX",
"XXXXXXXXXXXX        XXXXXXXXXXXX",
"XXXXXXXXXXXX  .  .  XXXXXXXXXXXX",
"XXXXXXXXXXXXX      XXXXXXXXXXXXX",
"XXXXXXXXXXXXXX    XXXXXXXXXXXXXX",
"XXXXXXXXXXXXXXXXXXXXXXXXXXXXXXXX",
"XXXXXXXXXXXXXXXXXXXXXXXXXXXXXXXX",
"XXXXXXXXXXXXXXXXXXXXXXXXXXXXXXXX",
"XXXXXXXXXXXXXXXXXXXXXXXXXXXXXXXX",
"XXXXXXXXXXXXXXXXXXXXXXXXXXXXXXXX",
"XXXXXXXXXXXXXXXXXXXXXXXXXXXXXXXX",
"XXXXXXXXXXXXXXXXXXXXXXXXXXXXXXXX"
};
