/* XPM */
static char *result[] = {
/* columns rows colors chars-per-pixel */
"32 32 3 1 ",
"  c #282827",
". c #F2F7F6",
"X c None",
/* pixels */
"XXXXXXXXXXXXXXXXXXXXXXXXXXXXXXXX",
"XXXXXXXXXXXXXXXXXXXXXXXXXXXXXXXX",
"XXXXXXXXXXXXXXXXXXXXXXXXXXXXXXXX",
"XXXXXXXXXXXXXXXXXXXXXXXXXXXXXXXX",
"XXXXXXXXXXXXXXXXXXXXXXXXXXXXXXXX",
"XXXXXXXXXXXXXXXXXXXXXXXXXXXXXXXX",
"XXXXXXXXXXXXXXXXXXXXXXXXXXXXXXXX",
"XXXXXXXXXXXXXX    XXXXXXXXXXXXXX",
"XXXXXXXXXXXX        XXXXXXXXXXXX",
"XXXXXXXXXXX          XXXXXXXXXXX",
"XXXXXXXXXX            XXXXXXXXXX",
"XXXXXXXXXX            XXXXXXXXXX",
"XXXXXXXXXX    .  .    XXXXXXXXXX",
"XXXXXXXXX              XXXXXXXXX",
"XXXXXXXXX              XXXXXXXXX",
"XXXXXXXXX     XXXXX    XXXXXXXXX",
"XXXXXXXXXX   XXXXXXX   XXXXXXXXX",
"XXXXXXXXXX   XXXXXXX   XXXXXXXXX",
"XXXXXXXXXX   XXXXXXX  XXXXXXXXXX",
"XXXXXXXXXX    XXXXX   XXXXXXXXXX",
"XXXXXXXXXXX    XXX    XXXXXXXXXX",
"XXXXXXXXXXX    XX    XXXXXXXXXXX",
"XXXXXXXXXXXX   XX   XXXXXXXXXXXX",
"XXXXXXXXXXXXX  XX  XXXXXXXXXXXXX",
"XXXXXXXXXXXXXX XX XXXXXXXXXXXXXX",
"XXXXXXXXXXXXXXXXXXXXXXXXXXXXXXXX",
"XXXXXXXXXXXXXXXXXXXXXXXXXXXXXXXX",
"XXXXXXXXXXXXXXXXXXXXXXXXXXXXXXXX",
"XXXXXXXXXXXXXXXXXXXXXXXXXXXXXXXX",
"XXXXXXXXXXXXXXXXXXXXXXXXXXXXXXXX",
"XXXXXXXXXXXXXXXXXXXXXXXXXXXXXXXX",
"XXXXXXXXXXXXXXXXXXXXXXXXXXXXXXXX"
};
