/* XPM */
static char *result[] = {
/* columns rows colors chars-per-pixel */
"32 32 3 1 ",
"  c #282827",
". c #F2F7F6",
"X c None",
/* pixels */
"XXXXXXXXXXXXXXXXXXXXXXXXXXXXXXXX",
"XXXXXXXXXXXXXXXXXXXXXXXXXXXXXXXX",
"XXXXXXXXXXXXXXXXXXXXXXXXXXXXXXXX",
"XXXXXXXXXXXXXXXXXXXXXXXXXXXXXXXX",
"XXXXXXXXXXXXXXXXXXXXXXXXXXXXXXXX",
"XXXXXXXXXXXXXXXXXXXXXXXXXXXXXXXX",
"XXXXXXXXXXXXXX    XXXXXXXXXXXXXX",
"XXXXXXXXXXXX        XXXXXXXXXXXX",
"XXXXXXXXXXXX        XXXXXXXXXXXX",
"XXXXXXXXXXXX        XXXXXXXXXXXX",
"XXXXXXXXXXX          XXXXXXXXXXX",
"XXXXXXXXXX    .  .    XXXXXXXXXX",
"XXXXXXXXX   X      X   XXXXXXXXX",
"XXXXXXXX   XXX    XXX   XXXXXXXX",
"XXXXXXX   XXXXXXXXXXXX   XXXXXXX",
"XXXXXX   XXXXXXXXXXXXXX   XXXXXX",
"XXXXXX   XXXXXXXXXXXXXX   XXXXXX",
"XXXXXX   XXXXXXXXXXXXXX   XXXXXX",
"XXXXXX   XXXXXXXXXXXXXX   XXXXXX",
"XXXXXX   XXXXXXXXXXXXXX   XXXXXX",
"XXXXXXX   XXXXXXXXXXXX   XXXXXXX",
"XXXXXXX   XXXXXXXXXXXX   XXXXXXX",
"XXXXXXXX  XXXXXXXXXXXX  XXXXXXXX",
"XXXXXXXX  XXXXXXXXXXXX  XXXXXXXX",
"XXXXXXXXX XXXXXXXXXXXX XXXXXXXXX",
"XXXXXXXXXXXXXXXXXXXXXXXXXXXXXXXX",
"XXXXXXXXXXXXXXXXXXXXXXXXXXXXXXXX",
"XXXXXXXXXXXXXXXXXXXXXXXXXXXXXXXX",
"XXXXXXXXXXXXXXXXXXXXXXXXXXXXXXXX",
"XXXXXXXXXXXXXXXXXXXXXXXXXXXXXXXX",
"XXXXXXXXXXXXXXXXXXXXXXXXXXXXXXXX",
"XXXXXXXXXXXXXXXXXXXXXXXXXXXXXXXX"
};
