/* XPM */
static char *_295f2afd3954a52952dd47cffa4d647L4Nvq2H30ru1LIVf[] = {
/* columns rows colors chars-per-pixel */
"32 32 3 1 ",
"  c None",
". c #282827",
"X c #F2F7F6",
/* pixels */
"                                ",
"                                ",
"                                ",
"                                ",
"                                ",
"                                ",
"                                ",
"                                ",
"                                ",
"                                ",
"                     .          ",
"     ...            ....        ",
"    .....          ......       ",
"   .......   .... ... .....     ",
"  ...   ............    ....    ",
" ...     ..........      ....   ",
" ...      .........       ...   ",
"...        ........        .    ",
" .         ..X..X..             ",
"            ......              ",
"             ....               ",
"                                ",
"                                ",
"                                ",
"                                ",
"                                ",
"                                ",
"                                ",
"                                ",
"                                ",
"                                ",
"                                "
};
