/* XPM */
static char *_68ebe6747fd42b6aa2ecdd7a32d18daxSoMQW93OBMWGMgE[] = {
/* columns rows colors chars-per-pixel */
"32 32 3 1 ",
"  c None",
". c #282827",
"X c #F2F7F6",
/* pixels */
"                                ",
"                                ",
"                                ",
"                                ",
"                                ",
"                                ",
"                                ",
"                                ",
"                                ",
"                                ",
"       .              ..        ",
"      ....           .....      ",
"     ......         ........    ",
"    ... ....       ...  .....   ",
"   ...    ...     ...     ....  ",
"  ...     ... ......        ..  ",
"  ...      .........         .  ",
"  ...       ........            ",
"   .        ........            ",
"            ........            ",
"            ..X..X..            ",
"             ......             ",
"              ....              ",
"                                ",
"                                ",
"                                ",
"                                ",
"                                ",
"                                ",
"                                ",
"                                ",
"                                "
};
