/* XPM */
static char *_c37e981b34541c5e02aeb6dc397d367LU2bMKtjGv4UhAGH[] = {
/* columns rows colors chars-per-pixel */
"32 32 10 1 ",
"  c None",
". c #1C121B",
"X c #1C1A30",
"o c #5E2C29",
"O c #2A304E",
"+ c #FC5003",
"@ c #FDA216",
"# c #667291",
"$ c #94A0BA",
"% c #FCFEFE",
/* pixels */
"                                ",
"                                ",
"                                ",
"                                ",
"                                ",
"                                ",
"              OOOOOO            ",
"            OO$%%%%%OO          ",
"           O$$%%%%%%%%OO        ",
"          O$#######%%%%%O       ",
"          O#########%%%%%O      ",
"         OO####OO###%%%%%%O     ",
"         O%####%%O###%%%%%%O    ",
"         O%####%%X###%%%%%%%O   ",
"        O#X#..#XXX###%%%#%%%O   ",
"        O##...#######%%%#OOOO   ",
"        O##...#######%%%$O      ",
"        O##.OO######%%%%%O      ",
"         O##########%%%%O       ",
"         O##$$%####%%%%%O       ",
"          O$$$%%%%%%%%%O        ",
"           O$$$%%%%%%ooOO       ",
"          O#o$$$$oooo$%%%O      ",
"          O##oooo$%%%%%%%%O     ",
"         O##$@@+%%%%%%%%%%%O    ",
"         O##$@@+%%%%%%#%%%%O    ",
"         O##$@@+%%%%%%#O%%%O    ",
"          OO#$$%%%%%%%$OOOO     ",
"          O###$$%%%%%%%O        ",
"          O#####O%%%%%%O        ",
"          O####O O%%%%%O        ",
"          O####O  O%%%%O        "
};
