/* XPM */
static char *cf77d8d6c3a5455c86d36a20c6a4cf1dDaEMiag2yXzgGcUq[] = {
/* columns rows colors chars-per-pixel */
"32 32 61 1 ",
"  c #151C23",
". c #151D24",
"X c #161D24",
"o c #171F28",
"O c #172028",
"+ c #182028",
"@ c #182229",
"# c #19222B",
"$ c #1A242B",
"% c #19232C",
"& c #1B262C",
"* c #1B262D",
"= c #1B2530",
"- c #1B2630",
"; c #1C2631",
": c #1C2732",
"> c #1D2A31",
", c #1D2833",
"< c #1E2B32",
"1 c #1E2A37",
"2 c #1F2B37",
"3 c #1F2D35",
"4 c #202D38",
"5 c #202D3B",
"6 c #202E3B",
"7 c #213036",
"8 c #24353B",
"9 c #22303C",
"0 c #22303E",
"q c #24353C",
"w c #25373D",
"e c #243340",
"r c #253542",
"t c #273A40",
"y c #273B41",
"u c #273942",
"i c #283B45",
"p c #293D44",
"a c #2A3E46",
"s c #2A3D48",
"d c #2B4046",
"f c #2C4248",
"g c #2C4349",
"h c #2D4349",
"j c #2C414B",
"k c #2D444A",
"l c #2D434C",
"z c #2E464C",
"x c #2F464D",
"c c #2F484E",
"v c #30494F",
"b c #2F4750",
"n c #304A50",
"m c #314B52",
"M c #324B52",
"N c #324C52",
"B c #324C53",
"V c #334E54",
"C c #344F56",
"Z c #345056",
"A c #355157",
/* pixels */
"AAAAAAAAAAAAAAAAAAAAAAAAAAAAAABX",
"0AAAAAAAAAAAAAAAAAAAAAAAAAAAAB2 ",
"00AAAAAAAAAAAAAAAAAAAAAAAAAAV2XX",
"00AAAAAAAAAAAAAAAAAAAAAAAAAAzXXX",
"00AA*$$$*$$$$$%*$$$$$$*+*+9Az...",
"00AAXhkkkkgkgg$2akkkkkkkk87AzX..",
"00AAXVAAZAAAAA0&zAAAAZAAAa<Al   ",
"00AAXAAw8w88BA2:zAaw8wwdZp2Zz   ",
"00AA AAO*X*XcA2&zA2 %ootAp<Ac   ",
"00AA AAX6+1#dc0&an,o---aAp<Ak   ",
"00AAXAA+90o0$0&2#2-1---wAp<Ac   ",
"00AA AAX2XBAAAAAAAAAs--sAp7Ak   ",
"00AAXAAOX2BAAAAAAAAA0*0gAp7Ac   ",
"00AA AAVV*BAAAAZAAAAsgZZAd<Ak   ",
"00AAXVAAA0BAA<O$+kAA8wAAAp<Ac   ",
"00AAX*r*#0AAA$226cAAp<&&$$2Ak   ",
"e6AA 1e126VAAe6e6bCAw:*#*X<Az   ",
"eeAAXlzzzeVAA116enAAtrhsk22AzO  ",
"2eAAXVAAAeVAAtslhMAAwdAAAi<Ak   ",
"00AAXCVgg1VAAAAAAAAA77dcAa2Az   ",
"00CCXCAOXOBAAAAAAAAA9  8Ap7Az   ",
"00AAXAAO.2BCVVZVCVVV7  8Ad<Az   ",
"00AAXCAX2rXXX.  XXX    8Ap<Az   ",
"0eAAXAAoo2o1nZ*.hV1    8Ap<Az   ",
"00AAoVAo2O2OcA&.kA< .X*gAp7Ak   ",
"00AA AABBBZZAA&XkZBBnnnZAp<Ac   ",
"00CAXZAAAAAAAAwOkAAAAAAAAp<Ak   ",
"00CAX2<<<<27<<$:<2<<2<77<&7Ac   ",
"00AAiwpwwppwwpwfdawpwpwwwpdZk   ",
"00AAAAAAAAZAAAAAZAAZAAAAAAAZc   ",
"02ggggkgffffkgggggdkdfffggffp   ",
"2O           O        O  O      "
};
