/* XPM */
static char *f3df9c40e3184d36ef72290b3cfd65de5uhAN9pNPR0ATwHg[] = {
/* columns rows colors chars-per-pixel */
"32 32 10 1 ",
"  c #151C23",
". c #161D24",
"X c #1C2833",
"o c #1E2A36",
"O c #1E2A37",
"+ c #202C39",
"@ c #22303E",
"# c #23313F",
"$ c #314B52",
"% c #355157",
/* pixels */
"  ..    ..    ..    ..    ..    ",
"@%%%%%%%%%%%%%%%%%%%%%%%%%%%%%$@",
"@@%%%%%%%%%%%%%%%%%%%%%%%%%%%$@@",
"@@@@##@@####@@####@@####@@##@@O.",
"@@@@@@@@@@@@@@@@@@@@@@@@@@@@+O..",
"@@@@@@@@@@@@@@@@@@@@@@@@@@@@#O..",
"@@@@@@@@@@@@@@@@@@@@@@@@@@@@+O. ",
"@@@@@@@@@@@@@@@@@@@@@@@@@@@#@O  ",
"@@@@@@@@@@@@@@@@@@@@@@@@@@@@@O. ",
"@@@@@@@@@@@@@@@@@@@@@@@@@@@@@O  ",
"@@@@@@@@@@@@@@@@@@@@@@@@@@@@@O  ",
"@@@@@@@@@@@@@@@@@@@@@@@@@@@@@O  ",
"@@@@@@@@@@@@@@@@@@@@@@@@@@@@@O  ",
"@@@@@@@@@@@@@@@@@@@@@@@@@@@@@O  ",
"@@@@@@@@@@@@@@@@@@@@@@@@@@@@@X  ",
"@@@@@@@@@@@@@@@@@@@@@@@@@@@@@O  ",
"@@@@@@@@@@@@@@@@@@@@@@@@@@@@@O  ",
"@@@@@@@@@@@@@@@@@@@@@@@@@@@@@O  ",
"@@@@@@@@@@@@@@@@@@@@@@@@@@@@@O  ",
"@@@@@@@@@@@@@@@@@@@@@@@@@@@@@O  ",
"@@@@@@@@@@@@@@@@@@@@@@@@@@@@@X  ",
"@@@@@@@@@@@@@@@@@@@@@@@@@@@@@O  ",
"@@@@@@@@@@@@@@@@@@@@@@@@@@@@@O  ",
"@@@@@@@@@@@@@@@@@@@@@@@@@@@@@O  ",
"@@@@@@@@@@@@@@@@@@@@@@@@@@@@@X  ",
"@@@@@@@@@@@@@@@@@@@@@@@@@@@@@O  ",
"@@@@@@@@@@@@@@@@@@@@@@@@@@@@#X  ",
"@@@@@@@@@@@@@@@@@@@@@@@@@@@@#+  ",
"@@@@@@@@@@@@@@@@@@@@@@@@@@@#@X  ",
"@@@@@@@@@@@@@@@@@@@@@@@@@@@#@O  ",
"@++++++++++++++++++++++++++++X  ",
"@                               "
};
